<svg version="1.1" viewBox="0.0 0.0 720.0 720.0" fill="none" stroke="none" stroke-linecap="square" stroke-miterlimit="10" xmlns:xlink="http://www.w3.org/1999/xlink" xmlns="http://www.w3.org/2000/svg"><clipPath id="p.0"><path d="m0 0l720.0 0l0 720.0l-720.0 0l0 -720.0z" clip-rule="nonzero"/></clipPath><g clip-path="url(#p.0)"><path fill="#000000" fill-opacity="0.0" d="m0 0l720.0 0l0 720.0l-720.0 0z" fill-rule="evenodd"/><path fill="#007bff" d="m-1.6272967E-5 360.0l0 0c0 -198.09193 161.17749 -358.67715 360.0 -358.67715l0 0c95.477936 0 187.04538 37.789093 254.55844 105.05411c67.51312 67.26502 105.44159 158.49594 105.44159 253.62305l0 0c0 198.09192 -161.17749 358.6772 -360.00003 358.6772l0 0c-198.8225 0 -360.0 -160.58527 -360.0 -358.6772z" fill-rule="evenodd"/><path stroke="#1e88e5" stroke-width="1.0" stroke-linejoin="round" stroke-linecap="butt" d="m-1.6272967E-5 360.0l0 0c0 -198.09193 161.17749 -358.67715 360.0 -358.67715l0 0c95.477936 0 187.04538 37.789093 254.55844 105.05411c67.51312 67.26502 105.44159 158.49594 105.44159 253.62305l0 0c0 198.09192 -161.17749 358.6772 -360.00003 358.6772l0 0c-198.8225 0 -360.0 -160.58527 -360.0 -358.6772z" fill-rule="evenodd"/><path fill="#ffffff" d="m210.64056 135.28708l0 0c0 -27.495918 22.289856 -49.785767 49.785767 -49.785767l199.13712 0l0 0c13.20401 0 25.867218 5.24527 35.203857 14.581917c9.336639 9.336639 14.58194 21.999847 14.58194 35.20385l0 456.17648c0 27.49591 -22.289856 49.785767 -49.785797 49.785767l-199.13712 0c-27.49591 0 -49.785767 -22.289856 -49.785767 -49.785767z" fill-rule="evenodd"/><path stroke="#999999" stroke-width="1.0" stroke-linejoin="round" stroke-linecap="butt" d="m210.64056 135.28708l0 0c0 -27.495918 22.289856 -49.785767 49.785767 -49.785767l199.13712 0l0 0c13.20401 0 25.867218 5.24527 35.203857 14.581917c9.336639 9.336639 14.58194 21.999847 14.58194 35.20385l0 456.17648c0 27.49591 -22.289856 49.785767 -49.785797 49.785767l-199.13712 0c-27.49591 0 -49.785767 -22.289856 -49.785767 -49.785767z" fill-rule="evenodd"/><path fill="#b7b7b7" d="m225.72649 109.50131l268.5354 0l0 469.5118l-268.5354 0z" fill-rule="evenodd"/><path stroke="#b7b7b7" stroke-width="1.0" stroke-linejoin="round" stroke-linecap="butt" d="m225.72649 109.50131l268.5354 0l0 469.5118l-268.5354 0z" fill-rule="evenodd"/><path fill="#cccccc" d="m344.89334 608.2572l0 0c0 -7.044861 6.761566 -12.755859 15.102386 -12.755859l0 0c8.34079 0 15.102356 5.7109985 15.102356 12.755859l0 0c0 7.044922 -6.761566 12.75592 -15.102356 12.75592l0 0c-8.34082 0 -15.102386 -5.7109985 -15.102386 -12.75592z" fill-rule="evenodd"/><path stroke="#d9d9d9" stroke-width="1.0" stroke-linejoin="round" stroke-linecap="butt" d="m344.89334 608.2572l0 0c0 -7.044861 6.761566 -12.755859 15.102386 -12.755859l0 0c8.34079 0 15.102356 5.7109985 15.102356 12.755859l0 0c0 7.044922 -6.761566 12.75592 -15.102356 12.75592l0 0c-8.34082 0 -15.102386 -5.7109985 -15.102386 -12.75592z" fill-rule="evenodd"/><path fill="#666666" d="m225.72649 579.0289l0 -467.27557l227.77953 467.27557z" fill-rule="evenodd"/><path stroke="#666666" stroke-width="1.0" stroke-linejoin="round" stroke-linecap="butt" d="m225.72649 579.0289l0 -467.27557l227.77953 467.27557z" fill-rule="evenodd"/></g></svg>